<?xml version="1.0" encoding="utf-8"?>
<!-- Generator: Adobe Illustrator 16.0.4, SVG Export Plug-In . SVG Version: 6.00 Build 0)  -->
<!DOCTYPE svg PUBLIC "-//W3C//DTD SVG 1.1//EN" "http://www.w3.org/Graphics/SVG/1.1/DTD/svg11.dtd">
<svg version="1.1" id="decipher-logo" xmlns="http://www.w3.org/2000/svg" xmlns:xlink="http://www.w3.org/1999/xlink" x="0px"
	 y="0px" width="200px" height="200px" viewBox="0 0 200 200" enable-background="new 0 0 200 200" xml:space="preserve">
<path id="background" fill="#A3CF62" d="M200,175.254C200,188.92,188.92,200,175.252,200H24.742C11.075,200,0,188.92,0,175.254
	V24.745C0,11.078,11.075,0,24.742,0h150.51C188.92,0,200,11.078,200,24.745V175.254z"/>
<path id="de" fill="#FFFFFF" d="M155.25,114.59c-1.158-8.76-6.311-14.689-14.555-14.689c-8.119,0-13.402,5.8-14.949,14.689H155.25z
	 M106.549,120.387v-0.258c0-19.712,14.045-35.945,34.146-35.945c23.061,0,33.623,17.908,33.623,37.49
	c0,1.549-0.127,3.352-0.256,5.156h-48.061c1.936,8.887,8.119,13.527,16.881,13.527c6.568,0,11.338-2.062,16.748-7.086l11.211,9.922
	c-6.441,7.986-15.719,12.881-28.217,12.881C121.883,156.074,106.549,141.516,106.549,120.387 M99.731,60.479v94.05H80.149v-9.924
	c-4.768,6.443-11.338,11.209-21.518,11.209c-5.713,0-11.314-1.617-16.183-4.697l9.204-12.609c2.504,1.086,5.266,1.697,8.177,1.697
	c11.244,0,20.36-8.988,20.36-20.076s-9.116-20.076-20.36-20.076s-20.36,8.988-20.36,20.076c0,5.191,2.013,9.904,5.29,13.469
	l-8.769,12.014c-5.332-6.01-8.795-14.559-8.795-25.482v-0.258c0-23.062,15.076-35.687,31.437-35.687
	c10.438,0,16.879,4.768,21.518,10.307V60.479H99.731z"/>
<path id="orange-dot" fill="#F7941E" d="M74.002,120.129c0,7.721-6.346,13.977-14.174,13.977c-7.83,0-14.175-6.256-14.175-13.977
	c0-7.719,6.346-13.977,14.175-13.977C67.657,106.152,74.002,112.41,74.002,120.129"/>
</svg>
