<?xml version="1.0" encoding="utf-8"?>
<!-- Generator: Adobe Illustrator 16.0.4, SVG Export Plug-In . SVG Version: 6.00 Build 0)  -->
<!DOCTYPE svg PUBLIC "-//W3C//DTD SVG 1.1//EN" "http://www.w3.org/Graphics/SVG/1.1/DTD/svg11.dtd">
<svg version="1.1" id="librarian-logo" xmlns="http://www.w3.org/2000/svg" xmlns:xlink="http://www.w3.org/1999/xlink" x="0px"
	 y="0px" width="200px" height="200px" viewBox="0 0 200 200" enable-background="new 0 0 200 200" xml:space="preserve">
<path id="background" fill="#76CABF" d="M200,175.253C200,188.919,188.919,200,175.252,200H24.741C11.074,200,0,188.919,0,175.253
	V24.742C0,11.078,11.074,0,24.741,0h150.511C188.919,0,200,11.078,200,24.742V175.253z"/>
<path id="li" fill="#FFFFFF" d="M104.204,85.771h19.566v68.991h-19.566V85.771z M103.689,60.801h20.596v17.376h-20.596V60.801z
	 M76.921,154.763h19.577V60.879H76.921V154.763z"/>
<path id="orange-bars" fill="#FFD046" d="M51.02,78.124h19.577v76.637H51.02V78.124z M129.481,154.761h19.577V78.124h-19.577
	V154.761z M24.532,154.761h19.577V85.815H24.532V154.761z M155.89,154.761h19.577V85.815H155.89V154.761z"/>
</svg>
