<?xml version="1.0" encoding="utf-8"?>
<!-- Generator: Adobe Illustrator 16.0.4, SVG Export Plug-In . SVG Version: 6.00 Build 0)  -->
<!DOCTYPE svg PUBLIC "-//W3C//DTD SVG 1.1//EN" "http://www.w3.org/Graphics/SVG/1.1/DTD/svg11.dtd">
<svg version="1.1" id="revelation-logo" xmlns="http://www.w3.org/2000/svg" xmlns:xlink="http://www.w3.org/1999/xlink" x="0px"
	 y="0px" width="200px" height="200px" viewBox="0 0 200 200" enable-background="new 0 0 200 200" xml:space="preserve">
<path id="background" fill="#F7941E" d="M200,175.255C200,188.921,188.92,200,175.254,200H24.744C11.077,200,0,188.921,0,175.255
	V24.747C0,11.081,11.077,0,24.744,0h150.51C188.92,0,200,11.081,200,24.747V175.255z"/>
<path id="re" fill="#FFFFFF" d="M141.406,111.324c-1.264-9.56-6.887-16.024-15.883-16.024c-8.854,0-14.619,6.326-16.306,16.024
	H141.406z M88.274,117.648v-0.281c0-21.506,15.322-39.214,37.25-39.214c25.16,0,36.687,19.537,36.687,40.902
	c0,1.686-0.141,3.655-0.282,5.623h-52.429c2.108,9.698,8.855,14.758,18.414,14.758c7.167,0,12.37-2.248,18.273-7.73l12.229,10.822
	c-7.029,8.715-17.15,14.056-30.784,14.056C105,156.583,88.274,140.699,88.274,117.648 M43.292,79.557h21.366v15.181
	C69.014,84.335,76.043,77.59,88.694,78.15v22.35h-1.125c-14.196,0-22.911,8.574-22.911,26.566v27.828H43.292V79.557z"/>
<path id="light-orange-arc" fill="#FFFFFF" d="M100.799,29.465c-28.959,0-53.933,17.324-65.148,42.142h7.041
	C53.44,50.398,75.441,35.82,100.799,35.82c25.355,0,47.359,14.578,58.105,35.787h7.041
	C154.729,46.789,129.756,29.465,100.799,29.465"/>
<path id="darker-orange-arc" fill="#FFD046" d="M100.799,29.465c28.957,0,53.93,17.324,65.146,42.142h14.399
	c-11.967-32.94-43.543-56.474-80.622-56.474c-37.076,0-68.652,23.533-80.62,56.474h16.548
	C46.866,46.789,71.839,29.465,100.799,29.465"/>
</svg>
