<?xml version="1.0" encoding="utf-8"?>
<!-- Generator: Adobe Illustrator 16.0.4, SVG Export Plug-In . SVG Version: 6.00 Build 0)  -->
<!DOCTYPE svg PUBLIC "-//W3C//DTD SVG 1.1//EN" "http://www.w3.org/Graphics/SVG/1.1/DTD/svg11.dtd">
<svg version="1.1" id="Layer_1" xmlns="http://www.w3.org/2000/svg" xmlns:xlink="http://www.w3.org/1999/xlink" x="0px" y="0px"
	 width="334px" height="80px" viewBox="0 0 334 80" enable-background="new 0 0 334 80" xml:space="preserve">
<path id="revelation" fill="#58595B" d="M106.306,43.832v11.4H100V25.546h8.654c4.033,0,7.025,0.733,8.962,2.203
	c1.937,1.469,2.905,3.701,2.905,6.688c0,1.749-0.491,3.298-1.457,4.658c-0.947,1.369-2.315,2.428-4.071,3.201
	c4.468,6.68,7.376,10.993,8.725,12.937h-6.976l-7.09-11.4H106.306z M106.306,38.72h2.031c1.977,0,3.464-0.331,4.405-0.989
	c0.942-0.667,1.413-1.704,1.413-3.126c0-1.416-0.476-2.416-1.444-3.011c-0.967-0.595-2.467-0.892-4.498-0.892h-1.907V38.72z
	 M135.372,55.639c-3.656,0-6.505-1.005-8.565-3.029c-2.06-2.009-3.09-4.874-3.09-8.564c0-3.81,0.961-6.748,2.848-8.826
	c1.904-2.079,4.549-3.112,7.897-3.112c3.215,0,5.714,0.91,7.497,2.737c1.784,1.828,2.667,4.357,2.667,7.576v3.003h-14.632
	c0.066,1.753,0.592,3.128,1.563,4.124c0.971,0.993,2.343,1.492,4.098,1.492c1.371,0,2.657-0.149,3.876-0.433
	c1.218-0.282,2.495-0.746,3.832-1.369v4.804c-1.09,0.535-2.246,0.941-3.487,1.196C138.651,55.511,137.15,55.639,135.372,55.639z
	 M134.497,36.512c-1.311,0-2.342,0.42-3.09,1.25c-0.729,0.83-1.162,2.015-1.28,3.536h8.707c-0.03-1.521-0.434-2.706-1.211-3.536
	C136.864,36.932,135.81,36.512,134.497,36.512z M154.812,55.232l-8.635-22.703h6.473l4.379,12.927
	c0.495,1.647,0.805,3.188,0.909,4.654h0.124c0.064-1.289,0.374-2.848,0.927-4.654l4.354-12.927h6.49l-8.653,22.703H154.812z
	 M183.182,55.639c-3.654,0-6.505-1.005-8.564-3.029c-2.061-2.009-3.09-4.874-3.09-8.564c0-3.81,0.942-6.748,2.848-8.826
	c1.903-2.079,4.529-3.112,7.897-3.112c3.197,0,5.696,0.91,7.479,2.737c1.801,1.828,2.685,4.357,2.685,7.576v3.003h-14.632
	c0.063,1.753,0.592,3.128,1.562,4.124c0.973,0.993,2.343,1.492,4.099,1.492c1.37,0,2.657-0.149,3.876-0.433
	c1.219-0.282,2.494-0.746,3.814-1.369v4.804c-1.073,0.535-2.229,0.941-3.47,1.196C186.46,55.511,184.959,55.639,183.182,55.639z
	 M182.309,36.512c-1.313,0-2.344,0.42-3.091,1.25c-0.748,0.83-1.163,2.015-1.28,3.536h8.688c-0.013-1.521-0.415-2.706-1.191-3.536
	C184.657,36.932,183.619,36.512,182.309,36.512z M203.677,55.232h-6.207V23.639h6.207V55.232z M223.747,55.232l-1.191-3.091h-0.159
	c-1.056,1.312-2.122,2.221-3.219,2.741c-1.117,0.504-2.555,0.756-4.313,0.756c-2.186,0-3.903-0.625-5.152-1.872
	c-1.252-1.25-1.876-3.027-1.876-5.315c0-2.408,0.843-4.188,2.529-5.339c1.687-1.133,4.221-1.767,7.625-1.892l3.938-0.125v-0.989
	c0-2.299-1.184-3.453-3.532-3.453c-1.833,0-3.961,0.547-6.402,1.642l-2.058-4.176c2.619-1.372,5.521-2.057,8.688-2.057
	c3.056,0,5.396,0.667,7.002,1.995c1.625,1.328,2.438,3.343,2.438,6.049v15.126H223.747z M221.929,44.707l-2.402,0.088
	c-1.809,0.059-3.15,0.376-4.026,0.972c-0.879,0.594-1.315,1.501-1.315,2.72c0,1.748,1,2.622,3.002,2.622
	c1.435,0,2.587-0.41,3.438-1.245c0.868-0.818,1.304-1.913,1.304-3.284V44.707z M243.181,50.702c1.071,0,2.379-0.245,3.903-0.715
	v4.618c-1.554,0.688-3.457,1.033-5.687,1.033c-2.472,0-4.282-0.627-5.408-1.876c-1.146-1.252-1.708-3.128-1.708-5.63V37.184h-2.967
	v-2.623l3.426-2.066l1.784-4.795h3.964v4.83h6.349v4.654h-6.349v10.949c0,0.877,0.229,1.512,0.729,1.943
	C241.714,50.486,242.37,50.702,243.181,50.702z M251.563,26.667c0-2.025,1.124-3.028,3.373-3.028c2.247,0,3.372,1.003,3.372,3.028
	c0,0.957-0.282,1.705-0.842,2.239c-0.564,0.533-1.406,0.808-2.53,0.808C252.688,29.713,251.563,28.689,251.563,26.667z
	 M258.026,55.232h-6.189V32.53h6.189V55.232z M285.026,43.832c0,3.71-0.971,6.59-2.932,8.681c-1.942,2.088-4.66,3.126-8.132,3.126
	c-2.186,0-4.098-0.472-5.774-1.435c-1.661-0.945-2.941-2.318-3.824-4.103c-0.9-1.801-1.342-3.873-1.342-6.27
	c0-3.696,0.967-6.583,2.905-8.645c1.936-2.051,4.655-3.081,8.158-3.081c2.166,0,4.098,0.471,5.757,1.421
	c1.679,0.942,2.959,2.311,3.842,4.08C284.585,39.386,285.026,41.454,285.026,43.832z M269.336,43.832
	c0,2.248,0.354,3.959,1.099,5.113c0.744,1.135,1.938,1.723,3.616,1.723c1.636,0,2.823-0.586,3.563-1.718
	c0.72-1.152,1.072-2.846,1.072-5.118c0-2.234-0.353-3.926-1.095-5.051c-0.725-1.125-1.916-1.686-3.595-1.686
	c-1.655,0-2.843,0.561-3.566,1.682C269.689,39.89,269.336,41.577,269.336,43.832z M310.396,55.232h-6.207V41.976
	c0-1.636-0.287-2.868-0.856-3.684c-0.589-0.825-1.523-1.232-2.782-1.232c-1.743,0-2.992,0.578-3.77,1.735
	c-0.76,1.157-1.157,3.071-1.157,5.753v10.685h-6.189V32.53h4.741l0.821,2.905h0.345c0.688-1.095,1.648-1.924,2.848-2.485
	c1.214-0.562,2.592-0.843,4.146-0.843c2.632,0,4.632,0.708,6.005,2.141c1.37,1.425,2.057,3.486,2.057,6.186V55.232z M315.242,32.732
	c0-1.578,0.384-3.06,1.188-4.439c0.783-1.386,1.874-2.468,3.251-3.265c1.378-0.797,2.873-1.201,4.467-1.201
	c1.568,0,3.062,0.393,4.438,1.185c1.378,0.795,2.469,1.875,3.256,3.254c0.807,1.386,1.211,2.872,1.211,4.465
	c0,1.55-0.398,3.016-1.153,4.377c-0.774,1.371-1.843,2.464-3.221,3.279c-1.377,0.815-2.9,1.228-4.531,1.228
	c-1.646,0-3.151-0.403-4.528-1.225c-1.377-0.814-2.463-1.907-3.221-3.269C315.622,35.761,315.242,34.295,315.242,32.732z
	 M316.929,32.732c0,1.296,0.315,2.499,0.969,3.611c0.634,1.122,1.53,1.999,2.653,2.64c1.106,0.643,2.315,0.967,3.597,0.967
	c1.286,0,2.501-0.326,3.604-0.969c1.121-0.642,1.998-1.531,2.648-2.654c0.632-1.114,0.968-2.315,0.968-3.596
	c0-1.296-0.336-2.5-0.972-3.612c-0.651-1.122-1.53-1.999-2.653-2.65c-1.124-0.631-2.315-0.958-3.596-0.958
	c-1.305,0-2.499,0.327-3.621,0.97c-1.12,0.644-2,1.531-2.631,2.655C317.244,30.251,316.929,31.452,316.929,32.732z M327.747,30.67
	c0,1.342-0.562,2.264-1.688,2.763l2.811,4.734h-3.005l-2.117-4h-0.558v4h-2.698V27.324h3.124c1.417,0,2.472,0.271,3.132,0.828
	C327.428,28.701,327.747,29.544,327.747,30.67z M323.189,32.172h0.37c0.525,0,0.901-0.111,1.121-0.332
	c0.223-0.23,0.343-0.605,0.343-1.124c0-0.514-0.12-0.874-0.34-1.09c-0.219-0.208-0.599-0.316-1.152-0.316h-0.342V32.172z"/>
<path id="background" fill="#F7941E" d="M80,70.102C80,75.568,75.568,80,70.102,80H9.897C4.431,80,0,75.568,0,70.102V9.899
	C0,4.432,4.431,0,9.897,0h60.204C75.568,0,80,4.432,80,9.899V70.102z"/>
<path id="re" fill="#FFFFFF" d="M56.562,44.529c-0.506-3.823-2.755-6.409-6.354-6.409c-3.541,0-5.848,2.53-6.521,6.409H56.562z
	 M35.31,47.06v-0.112c0-8.603,6.129-15.686,14.899-15.686c10.064,0,14.675,7.814,14.675,16.361c0,0.674-0.056,1.462-0.112,2.249
	H43.8c0.843,3.879,3.542,5.903,7.365,5.903c2.867,0,4.948-0.899,7.31-3.093l4.892,4.329c-2.812,3.486-6.86,5.622-12.313,5.622
	C42,62.633,35.31,56.279,35.31,47.06 M17.316,31.823h8.547v6.072c1.742-4.161,4.554-6.859,9.614-6.635v8.94h-0.45
	c-5.678,0-9.164,3.43-9.164,10.626v11.132h-8.547V31.823z"/>
<path id="light-orange-arc" fill="#FFFFFF" d="M40.319,11.786c-11.583,0-21.573,6.929-26.06,16.856h2.816
	c4.3-8.483,13.101-14.314,23.243-14.314s18.944,5.831,23.242,14.314h2.816C61.892,18.715,51.902,11.786,40.319,11.786"/>
<path id="darker-orange-arc" fill="#FFD046" d="M40.319,11.786c11.583,0,21.572,6.929,26.059,16.856h5.76
	C67.352,15.466,54.721,6.053,39.889,6.053c-14.83,0-27.461,9.413-32.247,22.589h6.618C18.746,18.715,28.736,11.786,40.319,11.786"/>
</svg>
